<svg id="Layer_1" data-name="Layer 1" xmlns="http://www.w3.org/2000/svg" viewBox="0 0 341.18 376.55"><defs><style>.cls-1{fill:#fff;stroke:#231f20;}</style></defs><path d="M205.06,344.35H37.83c-3.54,0-4-.84-2.47-4q27.35-53.61,54.69-107.22,33.84-66.27,67.74-132.51Q173.93,69.1,190,37.51c.35-.7.36-2.38,1.91-1.49,1.39.8.25,1.8-.14,2.56q-33.6,65.85-67.25,131.66Q92.19,233.63,59.87,297q-11,21.58-22.08,43.13c-1,1.86-.55,2.16,1.35,2.16q33.75-.06,67.5,0a3,3,0,0,0,2.92-1.77q28.62-49.4,57.29-98.73,9.35-16.1,18.67-32.19c.25-.43.54-.84.8-1.27.45-.74.93-.38,1.47-.1s.51.73.23,1.21c-1.08,1.88-2.14,3.76-3.23,5.64L112.42,339.74c-1.48,2.54-1.46,2.56,1.46,2.56,14.83,0,29.67,0,44.5,0a3.57,3.57,0,0,0,3.66-2.2q10.62-19.53,21.42-38.95c.4-.73.52-2.34,2-1.42s.1,1.78-.29,2.51Q174.94,321,164.62,339.71c-1.41,2.57-1.4,2.59,1.49,2.59h56.75c2.9,0,2.87,0,1.47-2.59q-9.45-17.46-18.87-34.94a.91.91,0,0,1-.11-.22c-.15-.9-1.8-1.84-.1-2.68s1.47.95,1.86,1.61c1.69,2.87,3.22,5.83,4.8,8.76q7.29,13.51,14.56,27.05c.12.22.35.44.35.65-.13,3.36,2.34,2.33,4.05,2.34q28.25,0,56.5,0c.8,0,1.87.4,2.36-.3s-.45-1.49-.85-2.13q-32.31-51.41-64.65-102.76-8.32-13.22-16.58-26.47c-.4-.64-1.86-1.48-.34-2.43s1.64.7,2.06,1.37q24.12,38.24,48.17,76.53,17.1,27.16,34.16,54.36a3.53,3.53,0,0,0,3.41,1.88q37.74-.07,75.5,0c2.81,0,2.82,0,1.57-2.49l-77.6-153L225.47,50.48c-2.44-4.82-4.91-9.64-7.31-14.49-.32-.65-1.48-1.49,0-2.21s1.47.73,1.8,1.37q11.07,21.69,22.05,43.42,27.69,54.54,55.4,109.09,26.31,51.9,52.56,103.82,12.24,24.16,24.52,48.31c2,3.94,1.61,4.56-2.73,4.56H205.06Z" transform="translate(-34.51 -13.62)"/><path d="M197.79,25.9c1.11.46,1,1.44,1.32,2.13,1.08,2.07,2.57,3.46,5.12,3.17a2.69,2.69,0,0,0,2.51-2.08,2.34,2.34,0,0,0-1.17-2.77c-1.43-.84-2.94-1.53-4.38-2.35s-2.9-1.94-3.25-3.86c-.75-4,1.8-6.73,6-6.5,1.58.08,3.09,1.43,4.77.19.41-.3.62.38.63.77,0,1.55,0,3.1,0,4.68-1.22,0-1.11-.86-1.39-1.36a6.15,6.15,0,0,0-2.69-2.85c-1.58-.72-3.22-.77-4.15.93s.1,2.82,1.6,3.59,2.84,1.4,4.22,2.15A5.62,5.62,0,0,1,210,28c-.43,2.3-2.47,3.74-5.22,4.26-2.29.44-4.49-1.32-6.76-.06-.26.14-.53-.31-.52-.67C197.59,29.67,197.2,27.79,197.79,25.9Z" transform="translate(-34.51 -13.62)"/><path d="M207.77,295.38H199c1.7-.82,3.09-1,2.41-2.81-.59-1.53-1.32-2.41-3.07-2.1-1.2.21-2.58-.46-3.63.37-1.42,1.14-1,3.24,1.16,4.47H190.5c3.21-3.79,4.06-8.7,6.13-13.05.54-1.12.94-2.31,1.45-3.45.22-.5.24-1.28,1-1.28s.81.74,1,1.25c1.81,4.2,3.62,8.41,5.39,12.62A11.7,11.7,0,0,0,207.77,295.38Zm-10.05-11.61c-1.06,1.07-1.23,2.4-1.79,3.53-.8,1.6-.16,1.91,1.4,1.94,1.9,0,2.91-.21,1.69-2.35A27.77,27.77,0,0,1,197.72,283.77Z" transform="translate(-34.51 -13.62)"/><path d="M207.71,201.56H201c-.4,0-.8-.05-1.63-.12,1.23-.86,2.62-1.09,2-3-1-2.89-3.15-1.65-4.92-2s-2,.85-2.53,2.06c-.71,1.69.42,2.13,1.51,2.84h-5.15c2.8-2.5,3.29-5.9,4.64-8.84,1.18-2.57,2.14-5.23,3.22-7.83.19-.45.26-1.06.84-1.15.79-.11.86.66,1.07,1.14,1.78,4.11,3.53,8.24,5.29,12.36A13.72,13.72,0,0,0,207.71,201.56Zm-10.05-11.79a17.35,17.35,0,0,0-2,4.48c-.23.57-.05,1,.6,1,1.07,0,2.36.28,3.13-.21.94-.61-.25-1.57-.47-2.37A29.77,29.77,0,0,0,197.66,189.77Z" transform="translate(-34.51 -13.62)"/><path d="M74.31,375.17c5.21-.51,5.21-.51,5.21,4.42,0,1.34.06,2.67,0,4A2.9,2.9,0,0,0,81,386.42c-1.83-.08-3.46,1.79-5.38.15-.46-.39-1,.36-1.55.56-3.1,1.19-5.37-.22-5.52-3.49-.06-1.42,0-2.84,0-4.25s.28-3-1.13-4A3.22,3.22,0,0,1,68,375c4.23-.36,4.23-.36,4.23,3.82,0,1.66,0,3.33,0,5,0,.84.21,1.73,1.31,1.83a2.17,2.17,0,0,0,2-1.19C76.55,383,75.7,376.66,74.31,375.17Z" transform="translate(-34.51 -13.62)"/><path d="M134.31,384.69c5.54-5.88,5.18-4.16,0-11.73,1.75-.52,3.48-.2,5.18-.24.53,0,1.28-.09.61,1s.37,1.87,1,2.46.94-.37,1.27-.75c.67-.79,1.49-1.67-1.35-2.37a14.17,14.17,0,0,1,5.38-.14c-4.74,4.47-4.73,4.46-1.14,9.86.39.59,1.15,1,1.13,2h-6.16c1.59-1.45.43-2.44-.37-3.47-.32-.41-.74-.32-1,.1-.67,1-2.25,1.88-.16,3.3A10.78,10.78,0,0,1,134.31,384.69Z" transform="translate(-34.51 -13.62)"/><path d="M199.58,372.75c-1.88,2.85.58,4.55,1.2,6.68.43-2.12,3-3.88.77-6.51a8.43,8.43,0,0,1,3.74-.07c-2.27,3.09-2.92,6.72-4.35,10-.76,1.75-1.41,3.55-2.14,5.32a2.93,2.93,0,0,1-2.65,2c-1.21.08-2.42,0-2.79-1.46-.23-.95-.15-1.92,1-2.2,1.47-.34,2.15.5,2.27,2.08,1.74-1.07,2.43-2.54,1.84-4.1a66.28,66.28,0,0,0-5.06-11.5C195.35,372.42,197.31,372.76,199.58,372.75Z" transform="translate(-34.51 -13.62)"/><path d="M261.13,383.7c3,.72,4.09-1.22,5.21-3.16,1.23,2.9.42,4.34-2.31,4.35h-5.25c-2.75,0-2.78-.06-1.37-2.54,1.31-2.32,2.69-4.6,4-6.92.26-.46.93-.95.43-1.53s-1.08-.18-1.65-.09c-1.5.22-1.95,1.62-2.83,2.66-.87-3.44-.63-3.77,2.5-3.78,1.83,0,3.67,0,5.5,0,1.55,0,1.72.57,1,1.79-.89,1.5-1.74,3-2.6,4.55Z" transform="translate(-34.51 -13.62)"/><path d="M337.08,376.8c.4-2,3.38-3.62.83-6.16a9.28,9.28,0,0,1,3.75,0c-2.36,3.34-3.19,7.21-4.87,10.69-.27.57-.22,1.55-1,1.57-1,0-.93-1-1.21-1.67-1.54-3.53-2.54-7.31-5-10.63H336C333.86,373,336.62,374.68,337.08,376.8Z" transform="translate(-34.51 -13.62)"/><path class="cls-1" d="M200.78,165.75c2.93-4.63,2.11-13.56,7.47-21.15,10.05-14.24-1.75-18.39-5.6-33-3.74-14.16,19.93-22.5,7.46-33.6-9.79-8.72-14.22-20.31-4.35-35.46" transform="translate(-34.51 -13.62)"/><path class="cls-1" d="M197.67,213c6.39,9.12,6.59,15.32,5.6,19.29C201.16,240.8,192.68,243,191.45,251c-1,6.35,3.26,12.27,6.84,16.17" transform="translate(-34.51 -13.62)"/></svg>